<?xml version="1.0" standalone="no"?>
<!DOCTYPE svg PUBLIC "-//W3C//DTD SVG 20010904//EN"
 "http://www.w3.org/TR/2001/REC-SVG-20010904/DTD/svg10.dtd">
<svg version="1.0" xmlns="http://www.w3.org/2000/svg"
 width="512.000000pt" height="512.000000pt" viewBox="0 0 512.000000 512.000000"
 preserveAspectRatio="xMidYMid meet">
<metadata>
Created by potrace 1.14, written by Peter Selinger 2001-2017
</metadata>
<g transform="translate(0.000000,512.000000) scale(0.100000,-0.100000)"
fill="#000000" stroke="none">
<path d="M1149 5116 c-2 -2 -40 -6 -84 -10 -183 -14 -263 -32 -394 -85 -133
-54 -227 -118 -341 -231 -197 -198 -291 -413 -317 -725 -10 -124 -11 -2889 -1
-3001 30 -330 119 -537 316 -733 203 -203 410 -291 742 -318 122 -10 2865 -10
2986 -1 372 31 636 167 836 433 88 117 164 283 187 411 6 33 13 70 16 84 3 14
8 72 13 130 9 138 9 2855 -1 2987 -14 196 -72 399 -148 518 -16 25 -29 48 -29
51 0 10 -72 97 -129 157 -130 136 -345 258 -516 292 -22 5 -42 9 -45 10 -3 1
-36 5 -75 9 -38 5 -79 11 -90 14 -21 6 -2919 14 -2926 8z"/>
</g>
</svg>
